<?xml version="1.0" standalone="no"?>
<!DOCTYPE svg PUBLIC "-//W3C//DTD SVG 20010904//EN"
 "http://www.w3.org/TR/2001/REC-SVG-20010904/DTD/svg10.dtd">
<svg version="1.0" xmlns="http://www.w3.org/2000/svg"
 width="600.000000pt" height="600.000000pt" viewBox="0 0 600.000000 600.000000"
 preserveAspectRatio="xMidYMid meet">

<g transform="translate(0.000000,600.000000) scale(0.100000,-0.100000)"
fill="#ffffff" stroke="none">
<path d="M955 4813 c-77 -28 -139 -68 -184 -119 -148 -169 -145 -413 7 -576
203 -217 557 -167 688 97 42 84 55 164 43 255 -19 134 -112 261 -238 323 -58
28 -76 32 -165 35 -77 2 -113 -2 -151 -15z"/>
<path d="M2020 4405 l0 -305 1685 0 1685 0 0 305 0 305 -1685 0 -1685 0 0
-305z"/>
<path d="M965 3337 c-209 -70 -333 -268 -297 -479 52 -302 394 -454 650 -289
73 48 117 99 154 178 100 212 10 464 -202 566 -57 27 -77 31 -165 34 -63 2
-115 -2 -140 -10z"/>
<path d="M2020 2925 l0 -305 1685 0 1685 0 0 305 0 305 -1685 0 -1685 0 0
-305z"/>
<path d="M1040 1863 c-97 -10 -210 -69 -273 -144 -219 -256 -76 -645 259 -702
275 -47 522 200 483 482 -32 226 -240 387 -469 364z"/>
<path d="M2020 1435 l0 -305 1685 0 1685 0 0 305 0 305 -1685 0 -1685 0 0
-305z"/>
</g>
</svg>
