<?xml version="1.0" standalone="no"?>
<!DOCTYPE svg PUBLIC "-//W3C//DTD SVG 20010904//EN"
 "http://www.w3.org/TR/2001/REC-SVG-20010904/DTD/svg10.dtd">
<svg version="1.0" xmlns="http://www.w3.org/2000/svg"
 width="482.000000pt" height="482.000000pt" viewBox="0 0 482.000000 482.000000"
 preserveAspectRatio="xMidYMid meet">

<g transform="translate(0.000000,482.000000) scale(0.100000,-0.100000)"
fill="#ffffff" stroke="none">
<path d="M2160 4799 c-568 -70 -1051 -301 -1440 -689 -445 -444 -690 -1012
-707 -1640 -6 -222 3 -332 48 -555 163 -806 733 -1470 1517 -1766 312 -118
735 -174 1063 -140 294 30 599 118 841 240 755 382 1242 1090 1329 1931 7 70
10 185 6 300 -25 806 -445 1538 -1127 1964 -276 173 -548 275 -895 337 -136
24 -502 35 -635 18z m1535 -1075 c176 -95 220 -314 93 -459 -48 -55 -93 -79
-173 -95 -44 -8 -383 -10 -1240 -8 l-1180 3 -50 23 c-111 51 -174 148 -176
269 -2 103 40 186 121 239 84 56 17 53 1340 51 l1225 -2 40 -21z m-31 -1054
c100 -51 166 -157 166 -265 0 -82 -26 -143 -89 -206 -97 -97 18 -89 -1365 -89
l-1211 0 -61 29 c-102 48 -165 145 -167 256 -1 124 56 220 165 274 l62 31
1225 -2 1226 -3 49 -25z m28 -1053 c108 -53 168 -150 168 -271 0 -81 -32 -148
-99 -208 -93 -84 7 -78 -1347 -78 l-1203 0 -57 21 c-62 23 -130 83 -160 140
-26 51 -31 178 -9 236 33 86 119 160 212 182 22 5 556 9 1238 8 l1200 -2 57
-28z"/>
</g>
</svg>
